<svg xmlns="http://www.w3.org/2000/svg" width="22" height="20" viewBox="0 0 22 20">
    <path fill="#FFF" fill-rule="nonzero" d="M19.068 17.796v-4.59a4.767 4.767 0 0 0-3.138-4.492v-2.23c0-.812-.652-1.47-1.454-1.47-.804 0-1.456.658-1.456 1.47 0 0 .15 1.949-1.788 1.949-1.94 0-2.144-1.949-2.144-1.949 0-.812-.65-1.47-1.454-1.47-.804 0-1.455.658-1.455 1.47v2.31a4.774 4.774 0 0 0-2.916 4.412v4.628a1.16 1.16 0 0 0-.583 1.005c0 .641.515 1.161 1.148 1.161H18.57c.635 0 1.149-.52 1.149-1.161 0-.46-.268-.855-.652-1.043zm-7.903-2.01c-1.418 0-2.567-1.163-2.567-2.597 0-1.435 1.15-2.597 2.567-2.597 1.417 0 2.568 1.162 2.568 2.597 0 1.434-1.15 2.596-2.568 2.596zm1.348-2.614c0 .77-.617 1.393-1.378 1.393-.76 0-1.377-.623-1.377-1.393s.617-1.393 1.377-1.393c.761 0 1.378.623 1.378 1.393zm9.445-7.224h.002l-.016.08-.027.132c-.005.018-.008.036-.012.055-.055.228-.108.361-.108.361l-.008-.007c-.39.99-1.25 1.611-2.123 1.289l-1.93-.813c-1.041-.385-1.7-1.816-1.473-3.198l.018-.112c-2.36-.665-7.07-.923-10.58.081l.043.263C5.97 5.461 5.31 6.892 4.27 7.276l-1.929.611C1.326 8.262.326 7.601.066 6.281-.175 5.504-.315.213 10.25.008c11.138-.217 11.99 4.254 11.708 5.94z"/>
</svg>
