<svg xmlns="http://www.w3.org/2000/svg" xmlns:xlink="http://www.w3.org/1999/xlink" width="25px" height="34px" viewBox="0 0 25 34" version="1.1">
    <!-- Generator: Sketch 54.1 (76490) - https://sketchapp.com -->
    <title>star-of-david-3</title>
    <desc>Created with Sketch.</desc>
    <g id="Symbols" stroke="none" stroke-width="1" fill="none" fill-rule="evenodd">
        <g id="star-of-david-3" transform="translate(-4.000000, 0.000000)" fill="#014e85" fill-rule="nonzero">
            <g transform="translate(4.000000, 0.000000)" id="Shape">
                <path d="M12.5,0 C5.59635161,0 0,5.54733247 0,12.3905109 C0,16.653568 3.63829436,23.5138236 10.9148831,32.9712776 L10.9148825,32.9712781 C11.5884451,33.8467141 12.8441565,34.0103647 13.7195925,33.3368021 C13.856733,33.2312859 13.9796003,33.1084186 14.0851165,32.9712781 C21.3617055,23.5138238 25,16.6535681 25,12.3905109 C25,5.54733247 19.4036484,0 12.5,0 Z M12.5,22 C7.26170877,22 3,17.7382912 3,12.5 C3,7.26170877 7.26170877,3 12.5,3 C17.7382912,3 22,7.26170877 22,12.5 C22,17.7382912 17.7382912,22 12.5,22 Z"/>
            </g>
        </g>
    </g>
</svg>